# Made in Blockbench 4.11.2
mtllib feuwgviyuewf - Converted.mtl

o cuboid
v 0.5 1.6875 0.5
v 0.5 0.875 -0.5
v 0.5 0 0.5
v 0.5 0 -0.5
v -0.5 1.6875 0.5
v -0.5 0.875 -0.5
v -0.5 0 0.5
v -0.5 0 -0.5
v 0.5 1.6875 0.16666666666666674
v -0.5 1.6875 0.16666666666666674
v 0.5 1.6875 -0.16666666666666663
v -0.5 1.6875 -0.16666666666666663
v -0.5 0 0.16666666666666674
v -0.5 0 -0.16666666666666663
v 0.5 0 0.16666666666666674
v 0.5 0 -0.16666666666666663
vt 0.515625 0.796875
vt 0.4322921875 1
vt 0.4322921875 0.578125
vt 0.515625 0.578125
vt 0.203125 0.140625
vt 0.2864578125 0.140625
vt 0.2864578125 0.5625
vt 0.203125 0.359375
vt 0.25 0.7804453124999999
vt 0.25 1
vt 0 1
vt 0 0.7804453124999999
vt 0.78125 0.75
vt 0.78125 0.8333328125
vt 0.53125 0.8333328125
vt 0.53125 0.75
vt 0.71875 0.140625
vt 0.71875 0.5625
vt 0.46875 0.5625
vt 0.46875 0.140625
vt 0.25 0.7804453124999999
vt 0 0.7804453124999999
vt 0 0.5616953124999999
vt 0.25 0.5616953124999999
vt 0.984375 0.5677078125
vt 0.984375 0.651040625
vt 0.734375 0.651040625
vt 0.734375 0.5677078125
vt 0.984375 0.651040625
vt 0.984375 0.734375
vt 0.734375 0.734375
vt 0.734375 0.651040625
vt 0.453125 0.5625
vt 0.3697921875 0.5625
vt 0.3697921875 0.140625
vt 0.453125 0.140625
vt 0.3697921875 0.5625
vt 0.2864578125 0.5625
vt 0.2864578125 0.140625
vt 0.3697921875 0.140625
vt 0.53125 1
vt 0.53125 0.9166671875
vt 0.78125 0.9166671875
vt 0.78125 1
vt 0.53125 0.9166671875
vt 0.53125 0.8333328125
vt 0.78125 0.8333328125
vt 0.78125 0.9166671875
vt 0.265625 0.578125
vt 0.3489578125 0.578125
vt 0.3489578125 1
vt 0.265625 1
vt 0.3489578125 0.578125
vt 0.4322921875 0.578125
vt 0.4322921875 1
vt 0.3489578125 1
vn 1 0 0
vn -1 0 0
vn 0 0.3795563562563061 -0.925168618374746
vn 0 -1 0
vn 0 0 1
vn 0 0 -1
vn 0 1 0
vn 0 1 0
vn -1 0 0
vn -1 0 0
vn 0 -1 0
vn 0 -1 0
vn 1 0 0
vn 1 0 0
usemtl m_3d831de6-1db5-8004-a896-afc1c4030820
f 2/1/1 11/2/1 16/3/1 4/4/1
f 8/5/2 14/6/2 12/7/2 6/8/2
f 6/9/3 12/10/3 11/11/3 2/12/3
f 4/13/4 16/14/4 14/15/4 8/16/4
f 3/17/5 1/18/5 5/19/5 7/20/5
f 6/21/6 2/22/6 4/23/6 8/24/6
f 1/25/7 9/26/7 10/27/7 5/28/7
f 9/29/8 11/30/8 12/31/8 10/32/8
f 5/33/9 10/34/9 13/35/9 7/36/9
f 10/37/10 12/38/10 14/39/10 13/40/10
f 7/41/11 13/42/11 15/43/11 3/44/11
f 13/45/12 14/46/12 16/47/12 15/48/12
f 3/49/13 15/50/13 9/51/13 1/52/13
f 15/53/14 16/54/14 11/55/14 9/56/14