# Made in Blockbench 4.10.4
mtllib linie cristal.mtl

o cube
v 0.5 -0.4375 0.5
v 0.5 -0.4375 -0.5
v 0.5 -0.5 0.5
v 0.5 -0.5 -0.5
v -0.5 -0.4375 -0.5
v -0.5 -0.4375 0.5
v -0.5 -0.5 -0.5
v -0.5 -0.5 0.5
vt 0 1
vt 1 1
vt 1 0.96875
vt 0 0.96875
vt 0.75 0.65625
vt 0.875 0.65625
vt 0.875 0.625
vt 0.75 0.625
vt 0 0.96875
vt 1 0.96875
vt 1 1
vt 0 1
vt 0.75 0.71875
vt 0.9375 0.71875
vt 0.9375 0.6875
vt 0.75 0.6875
vt 1 0
vt 0 0
vt 0 1
vt 1 1
vt 1 1
vt 0 1
vt 0 0
vt 1 0
vn 0 0 -1
vn 1 0 0
vn 0 0 1
vn -1 0 0
vn 0 1 0
vn 0 -1 0
usemtl m_42350465-b542-c789-ce8c-74e0dc804c3e
f 4/4/1 7/3/1 5/2/1 2/1/1
f 3/8/2 4/7/2 2/6/2 1/5/2
f 8/12/3 3/11/3 1/10/3 6/9/3
f 7/16/4 8/15/4 6/14/4 5/13/4
f 6/20/5 1/19/5 2/18/5 5/17/5
f 7/24/6 4/23/6 3/22/6 8/21/6