# Made in Blockbench 4.10.4
mtllib vasi phone.mtl

o cube
v -0.4875 -0.25 0.0625
v -0.4875 -0.25 -0.0625
v -0.4875 -0.5 0.0625
v -0.4875 -0.5 -0.0625
v -0.5 -0.25 -0.0625
v -0.5 -0.25 0.0625
v -0.5 -0.5 -0.0625
v -0.5 -0.5 0.0625
vt 0.3125 0.125
vt 0.375 0.125
vt 0.375 0.0625
vt 0.3125 0.0625
vt 0.3125 1
vt 0.75 1
vt 0.75 0
vt 0.3125 0
vt 0.3125 0.125
vt 0.375 0.125
vt 0.375 0.0625
vt 0.3125 0.0625
vt 0.25 1
vt 0.6875 1
vt 0.6875 0
vt 0.25 0
vt 0.3125 0.125
vt 0.375 0.125
vt 0.375 0.0625
vt 0.3125 0.0625
vt 0.3125 0.125
vt 0.375 0.125
vt 0.375 0.0625
vt 0.3125 0.0625
vn 0 0 -1
vn 1 0 0
vn 0 0 1
vn -1 0 0
vn 0 1 0
vn 0 -1 0
usemtl m_791c8300-d612-4457-5b16-553dfd7d5494
f 4/4/1 7/3/1 5/2/1 2/1/1
usemtl m_b079bcba-6161-d387-d3e3-2ccee417380d
f 3/8/2 4/7/2 2/6/2 1/5/2
usemtl m_791c8300-d612-4457-5b16-553dfd7d5494
f 8/12/3 3/11/3 1/10/3 6/9/3
f 7/16/4 8/15/4 6/14/4 5/13/4
f 6/20/5 1/19/5 2/18/5 5/17/5
f 7/24/6 4/23/6 3/22/6 8/21/6